<?xml version="1.0" standalone="no"?>
<!DOCTYPE svg PUBLIC "-//W3C//DTD SVG 20010904//EN"
 "http://www.w3.org/TR/2001/REC-SVG-20010904/DTD/svg10.dtd">
<svg version="1.0" xmlns="http://www.w3.org/2000/svg"
 width="240.000000pt" height="240.000000pt" viewBox="0 0 240.000000 240.000000"
 preserveAspectRatio="xMidYMid meet">

<g transform="translate(0.000000,240.000000) scale(0.100000,-0.100000)"
fill="#000000" stroke="none">
<path d="M1036 1866 c-106 -40 -250 -178 -306 -294 l-35 -71 -65 -22 c-98 -33
-120 -46 -120 -73 0 -12 9 -31 20 -41 20 -18 22 -18 78 0 31 9 63 20 70 22 9
4 12 -18 12 -91 0 -83 4 -104 25 -145 67 -133 186 -260 284 -304 32 -14 197
-55 229 -57 1 0 2 -9 2 -19 0 -13 -11 -23 -35 -31 -112 -37 -253 -314 -267
-525 -3 -37 -1 -40 24 -43 24 -3 27 1 33 35 15 94 49 212 79 277 56 119 139
216 164 191 3 -3 8 -118 10 -255 l4 -250 30 0 29 0 -3 250 c-2 138 0 250 4
250 5 0 35 -22 69 -49 122 -99 233 -140 285 -106 24 16 64 90 77 145 3 14 22
131 42 260 33 212 35 235 20 246 -14 10 -14 18 0 75 8 35 15 81 15 102 0 20 2
37 4 37 2 0 28 -13 59 -30 51 -27 57 -28 71 -14 24 23 4 51 -59 79 -30 14 -59
25 -64 25 -6 0 -11 9 -11 21 0 37 -63 172 -98 211 -45 50 -183 147 -236 166
-38 13 -130 24 -326 37 -52 4 -87 1 -114 -9z m173 -57 c36 -6 76 -17 88 -25
28 -18 47 -18 62 0 10 12 21 12 66 1 59 -13 76 -23 181 -101 61 -46 75 -63
102 -121 17 -37 34 -81 38 -96 l6 -28 -63 6 c-70 7 -142 18 -234 35 -33 7 -66
11 -72 11 -65 -6 -391 8 -433 18 -25 5 -73 11 -107 13 -35 2 -63 7 -63 11 0
22 59 105 108 153 66 65 119 102 169 120 47 16 69 17 152 3z m-110 -374 c11
-20 27 -38 36 -41 8 -4 15 -13 15 -20 0 -11 -4 -12 -19 -4 -14 7 -22 7 -26 0
-9 -14 -62 18 -87 53 -31 43 -12 45 30 4 45 -44 61 -48 33 -8 -12 16 -21 34
-21 40 0 22 18 10 39 -24z m535 -53 c27 -29 46 -55 42 -59 -9 -9 -106 87 -106
105 0 20 10 13 64 -46z m-864 31 c0 -32 57 -139 85 -161 31 -25 93 -28 202
-13 97 14 173 85 173 161 0 29 1 30 50 30 44 0 50 -3 50 -20 0 -55 63 -156
121 -194 33 -22 50 -26 111 -26 115 0 168 46 168 145 0 25 5 45 10 45 30 0 0
-129 -58 -250 -33 -70 -55 -99 -125 -167 -72 -70 -92 -84 -143 -99 -95 -27
-309 -3 -403 46 -84 43 -181 152 -240 267 -17 35 -21 60 -21 148 0 63 4 105
10 105 6 0 10 -8 10 -17z m803 -40 c9 -21 33 -49 54 -63 29 -18 34 -25 21 -28
-38 -8 -108 69 -108 118 0 22 17 8 33 -27z m134 -490 c-29 -198 -56 -296 -88
-316 -23 -14 -128 37 -209 102 -36 29 -77 60 -92 69 -51 30 -36 49 40 54 37 3
88 14 114 26 52 23 215 178 242 230 9 17 18 32 19 32 2 0 -10 -89 -26 -197z"/>
<path d="M974 1663 c-39 -22 -84 -59 -84 -68 0 -13 68 5 117 32 61 34 60 32
43 43 -22 14 -42 12 -76 -7z"/>
<path d="M1456 1662 c-3 -5 27 -42 66 -83 83 -86 107 -79 27 9 -59 65 -85 86
-93 74z"/>
<path d="M1505 1086 c-20 -31 -121 -75 -201 -89 -35 -6 -64 -15 -64 -19 0 -22
132 3 208 40 59 29 116 92 82 92 -5 0 -17 -11 -25 -24z"/>
</g>
</svg>
